<svg xmlns="http://www.w3.org/2000/svg" xmlns:xlink="http://www.w3.org/1999/xlink" width="80.518ex" height="15.013ex" aria-hidden="true" viewBox="0 -3568 35589.1 6635.9"><defs><path id="a" d="M319-645v1799h347v-84H403V-645h-84Z"/><path id="b" d="M319-644v1799h84V-560h263v-84H319Z"/><path id="c" d="M319 0v602h84V0h-84Z"/><path id="d" d="M230 637q-27 0-32 1t-5 11q0 27 11 33 2 1 174 1 172-1 186-3 56-8 94-28t54-46 21-43 6-34q0-45-29-84t-67-60-67-34-38-13l7-5q67-38 67-110 0-11-5-61t-5-82v-9q0-18 1-28t11-18 26-9q28 0 46 22t26 47q5 14 8 17t15 3q20 0 20-12 0-18-24-57-38-57-90-57h-9q-61 0-101 25t-44 78q0 27 15 84t15 73q0 51-43 74-15 7-25 8t-71 2h-69l-32-130Q244 61 244 59q0-4 1-5t7-4 17-2 33-2h31q6-8 6-9t-3-18q-4-13-10-19h-15q-36 2-131 2H71Q54 2 50 1q-17 0-17 9 0 2 3 14 5 19 10 21 4 1 15 1h6q27 0 60 3 14 3 19 12 3 4 72 278t69 289q0 7-57 9Zm400-83q0 32-21 54t-86 28h-23q-21 0-38 1h-22q-47 0-54-10-1-3-34-133t-33-133q0-1 69-1 78 1 104 7 64 10 100 59 16 23 27 60t11 68Z"/><path id="e" d="M79 43q-6 0-27 6T30 61q0 7 55 232t61 235q15 32 52 32 20 0 42-15t22-44q0-5-2-15-1-7-87-223T84 45t-5-2Z"/><path id="f" d="M50 252q0 115 67 221t169 168 204 63q90 0 143-51 9-10 15-17t8-10l1-3q3 0 27 26 7 6 15 14t16 16 10 11l15 15h6q14 0 14-7 0-4-32-137-36-139-36-140-2-5-5-6t-18-2h-16q-6 6-6 9 0 1 1 7t2 20 1 32q0 71-32 124t-109 54q-18 0-39-3t-53-13-61-28-63-48-58-71-47-102-31-134q-2-18-2-39 0-48 14-85t36-57 50-34 52-17 45-4q54 0 99 23t62 59q3 8 15 55t12 53q0 8-13 10t-60 3h-37q-6 6-6 8t2 19q4 13 10 19h17q40-2 140-2h65q25 0 36 1t12 0q14 0 14-9 0-2-2-14-5-19-10-21-3-1-15-1-20 0-41-3-7-3-10-9t-14-51q-9-33-15-56Q589 6 586 3q-2-2-5-2-10 0-28 20t-23 31q0 1-2 0t-6-5q-74-69-200-69-121 0-196 77T50 252Z"/><path id="g" d="M231 637q-27 0-32 1t-5 11q0 27 11 33 1 1 130 1 259 0 273-2 63-10 105-45t43-92q0-64-58-115t-133-69l-10-3q64-9 105-46t42-92q0-73-72-141T453 1q-7-1-211-1Q42 0 39 2q-4 3-4 8 0 7 2 14 5 19 10 21 4 1 15 1h6q27 0 60 3 14 3 19 12 3 4 72 278t69 289q0 7-57 9Zm418-93q0 30-15 56t-49 34q-7 2-92 3h-42q-22 0-35-1h-13q-15-1-19-10-2-4-32-120 0-3-1-6l-31-126h81q81 0 93 2 60 10 107 58t48 110Zm-54-315q0 44-23 73t-60 34q-6 1-83 1-118 0-119-1 0-2-17-73t-35-141l-18-70q0-4 12-4t81-2q89 0 96 1 62 7 114 58t52 124Z"/><path id="h" d="M208 74q0-24 46-28 18 0 18-11 0-1-2-13-3-14-6-18t-13-4h-12q-10 0-34 1t-64 1Q70 2 50 0h-8q-7 7-7 11 2 27 13 35h14q70 3 102 50 6 6 181 305t178 303q7 12 24 12h25q6-9 6-10l28-323q28-323 30-326 5-11 65-11 25 0 25-10 0-2-3-14-3-15-5-18t-14-4h-14q-11 0-39 1t-73 1q-94 0-123-2h-12q-6 6-6 9t2 18q4 13 6 16l4 3h20q54 3 64 17l-12 150H283l-34-58q-41-69-41-81Zm308 186q0 11-12 156t-14 146l-27-43q-16-27-63-107l-90-152 103-1q103 0 103 1Z"/><path id="i" d="m213 578-13-5q-14-5-40-10t-58-7H83v46h19q47 2 87 15t56 24 28 22q2 3 12 3 9 0 17-6V361l1-300q7-7 12-9t24-4 62-2h26V0h-11q-21 3-159 3-136 0-157-3H88v46h64q16 0 25 1t16 3 8 2 6 5 6 4v517Z"/><path id="j" d="M0 1070v84h347V-645h-84v1715H0Z"/><path id="k" d="M263-560v1715h84V-644H0v84h263Z"/><path id="l" d="M263 0v602h84V0h-84Z"/><path id="m" d="M56 347q0 13 14 20h637q15-8 15-20 0-11-14-19l-318-1H72q-16 5-16 20Zm0-194q0 15 16 20h636q14-10 14-20 0-13-15-20H70q-14 7-14 20Z"/><path id="n" d="M21 287q1 3 2 8t5 22 10 31 15 33 20 30 26 22 33 9q29 0 51-12t31-22 11-20q2-6 3-6t8 7q48 52 111 52h3q48 0 72-41 8-19 8-37 0-30-13-48t-26-23-25-4q-20 0-32 11t-12 29q0 48 56 64-22 13-36 13-56 0-103-74-10-16-15-33t-34-133Q156 25 151 16q-13-27-43-27-13 0-21 6T76 7t-2 10q0 13 40 172t40 177q0 39-26 39-21 0-36-28t-24-61-11-36q-2-2-16-2H27q-6 6-6 9Z"/><path id="o" d="M109 429q-27 0-43 18t-16 44q0 71 53 123t132 52q91 0 152-56t62-145q0-43-20-82t-48-68-80-74q-36-31-100-92l-59-56 76-1q157 0 167 5 7 2 24 89v3h40v-3q-1-3-13-91T421 3V0H50v31q0 7 6 15t30 35q29 32 50 56 9 10 34 37t34 37 29 33 28 34 23 30 21 32 15 29 13 32 7 30 3 33q0 63-34 109t-97 46q-33 0-58-17t-35-33-10-19q0-1 5-1 18 0 37-14t19-46q0-25-16-42t-45-18Z"/><path id="p" d="M127 463q-27 0-42 17t-16 44q0 55 48 98t116 43q35 0 44-1 74-12 113-53t40-89q0-52-34-101t-94-71l-3-2q0-1 9-3t29-9 38-21q82-53 82-140 0-79-62-138T238-22q-80 0-138 43T42 130q0 28 18 45t45 18q28 0 46-18t18-45q0-11-3-20t-7-16-11-12-12-8-10-4-8-3l-4-1q51-45 124-45 55 0 83 53 17 33 17 101v20q0 95-64 127-15 6-61 7l-42 1-3 2q-2 3-2 16 0 18 8 18 28 0 58 5 34 5 62 42t28 112v8q0 57-35 79-22 14-47 14-32 0-59-11t-38-23-11-12h3q3-1 8-2t10-5 12-7 10-11 8-15 3-20q0-22-14-39t-45-18Z"/><path id="q" d="M462 0q-18 3-129 3-116 0-134-3h-9v46h58q7 0 17 2t14 5 7 8q1 2 1 54v50H28v46l151 231q153 232 155 233 2 2 21 2h18l6-6V211h92v-46h-92V66q0-7 6-12 8-7 57-8h29V0h-9ZM293 211v334L74 212l109-1h110Z"/><path id="r" d="M164 157q0-24-16-40t-39-16h-7q46-79 122-79 70 0 102 60 19 33 19 128 0 103-27 139-26 33-58 33h-6q-78 0-118-68-4-7-7-8t-15-2q-17 0-19 6-2 4-2 175v129q0 50 5 50 2 2 4 2 1 0 21-8t55-16 75-8q71 0 136 28 8 4 13 4 8 0 8-18v-13q-82-97-205-97-31 0-56 6l-10 2V374q19 14 30 22t36 16 51 8q81 0 137-65t56-154q0-92-64-157T229-22q-81 0-130 54T50 154q0 24 11 38t23 18 23 4q25 0 41-17t16-40Z"/><path id="s" d="M311 43q-15-13-44-28T206 0q-63 0-101 45T66 160q0 105 77 193t171 89q47 0 87-48l3 4q2 3 5 6t9 8 13 7 16 3q14 0 23-9t10-19q0-15-57-242T363-80q-18-54-77-89t-135-36q-141 0-141 68 0 26 18 46t46 20q15 0 28-9t14-31q0-10-2-19t-7-14-8-10-7-8l-2-2h1q10-3 60-3 38 0 60 12 23 11 43 33t28 47q6 19 16 62 13 48 13 56Zm73 285-4 11q-3 11-5 15t-6 14-10 14-13 11-18 9-22 3q-44 0-85-53-30-39-50-119t-20-116q0-79 62-79 56 0 110 70l8 10 53 210Z"/><path id="t" d="M73 647q0 10 4 23t12 13q1 0 72 5t73 6q12 0 12-9t-34-143q-8-34-17-70t-15-54l-4-19q0-3 6 3 49 40 101 40 62 0 100-46t39-116q0-111-79-201T173-11q-50 0-91 38T40 150v9q0 21 8 58t49 197q50 197 50 209t-38 14H83q-3 0-7 3t-3 7Zm263-322v6q0 74-61 74-17 0-35-8t-33-21-26-24-18-22l-6-8-21-86q-22-86-22-122 0-48 24-72 16-16 40-16 33 0 67 32 25 23 40 56t33 105q18 72 18 106Z"/><path id="u" d="M33 157q0 101 76 192t171 92q51 0 90-49 16 30 46 30 13 0 23-8t10-20q0-13-37-160T374 68q0-25 7-33t21-9q9 1 20 9 21 20 41 96 6 20 10 21 2 1 10 1h4q19 0 19-9 0-6-5-27t-20-54-32-50Q436 0 417-8q-8-2-24-2-34 0-57 15t-30 31l-6 15q-1 1-4-1l-4-4q-59-56-120-56-55 0-97 40T33 157Zm318 171q0 6-5 22t-23 35-46 20q-35 0-67-31t-50-81q-29-79-41-164v-11q0-8-1-12 0-45 18-62t43-18q38 0 75 33t44 51q2 4 27 107t26 111Z"/><path id="v" d="M96 585q56 81 153 81 48 0 96-26t78-92q37-83 37-228 0-155-43-237-20-42-55-67t-61-31-51-7q-26 0-52 6t-61 32-55 67q-43 82-43 237 0 174 57 265Zm225 12q-30 32-71 32-42 0-72-32-25-26-33-72t-8-192q0-158 8-208t36-79q28-30 69-30 40 0 68 30 29 30 36 84t8 203q0 145-8 191t-33 73Z"/><path id="w" d="M78 250q0 24 17 42t43 18q24 0 42-16t19-43q0-25-17-43t-43-18-43 17-18 43Z"/><path id="x" d="M229 286q-13 134-13 150 0 18 24 28h5q4 0 6 1 12-1 22-9t10-20q0-17-6-80t-7-70l58 42q56 41 61 44t10 3q13 0 24-10t12-27q0-13-10-23-5-3-68-33t-68-32l66-31 70-35q9-9 9-23 0-15-9-25t-24-11q-8 0-18 6t-55 40l-58 42q13-134 13-150 0-10-7-19t-26-9q-19 0-26 9t-8 19q0 17 6 80t7 70l-58-42q-56-41-61-44-4-3-10-3-13 0-24 10t-12 27v8q0 3 3 6t5 6 9 7 13 7 19 9 25 11 32 15 40 20L74 315q-9 9-9 23 0 15 9 25t24 11q8 0 18-6t55-40l58-42Z"/><path id="y" d="M56 237v13l14 20h299v150l1 150q10 13 19 13 13 0 20-15V270h298q15-8 15-20t-15-20H409V-68q-8-14-18-14h-4q-12 0-18 14v298H70q-14 7-14 20Z"/></defs><g fill="currentColor" stroke="currentColor" stroke-width="0" ><g ><g  transform="scale(1 -1)"><use xlink:href="#a" transform="translate(0 2414)"/><use xlink:href="#b" transform="translate(0 -2424)"/><svg width="667" height="3237.9" y="-1369" viewBox="0 809.5 667 3237.9"><use xlink:href="#c" transform="scale(1 8.068)"/></svg></g><g ><g ><g ><g ><use xlink:href="#d"  transform="matrix(1 0 0 -1 680.5 -2809)"/><use xlink:href="#e"  transform="matrix(.707 0 0 -.707 1439.5 -3172)"/></g></g></g><g ><g ><g ><use xlink:href="#f"  transform="matrix(1 0 0 -1 667 -1400)"/><use xlink:href="#e"  transform="matrix(.707 0 0 -.707 1453 -1763)"/></g></g></g><g ><g ><g ><use xlink:href="#g"  transform="matrix(1 0 0 -1 680.5 9)"/><use xlink:href="#e"  transform="matrix(.707 0 0 -.707 1439.5 -354)"/></g></g></g><g ><g ><g ><use xlink:href="#h"  transform="matrix(1 0 0 -1 685 1418)"/><use xlink:href="#e"  transform="matrix(.707 0 0 -.707 1435 1055)"/></g></g></g><g ><g ><use xlink:href="#i"  transform="matrix(1 0 0 -1 932.2 2818)"/></g></g></g><g  transform="matrix(1 0 0 -1 1697.5 0)"><use xlink:href="#j" transform="translate(0 2414)"/><use xlink:href="#k" transform="translate(0 -2424)"/><svg width="667" height="3237.9" y="-1369" viewBox="0 809.5 667 3237.9"><use xlink:href="#l" transform="scale(1 8.068)"/></svg></g></g><use xlink:href="#m"  transform="matrix(1 0 0 -1 2642.2 0)"/><g ><g  transform="matrix(1 0 0 -1 3698 0)"><use xlink:href="#a" transform="translate(0 2396)"/><use xlink:href="#b" transform="translate(0 -2406)"/><svg width="667" height="3202" y="-1351" viewBox="0 800.5 667 3202"><use xlink:href="#c" transform="scale(1 7.978)"/></svg></g><g ><g ><g ><g ><use xlink:href="#n"  transform="matrix(1 0 0 -1 4404 -2800)"/><use xlink:href="#i"  transform="matrix(.707 0 0 -.707 4855 -2650)"/></g></g><g ><g ><use xlink:href="#n"  transform="matrix(1 0 0 -1 6336.6 -2800)"/><use xlink:href="#o"  transform="matrix(.707 0 0 -.707 6787.6 -2650)"/></g></g><g ><g ><use xlink:href="#n"  transform="matrix(1 0 0 -1 8269.1 -2800)"/><use xlink:href="#p"  transform="matrix(.707 0 0 -.707 8720.1 -2650)"/></g></g><g ><g ><use xlink:href="#n"  transform="matrix(1 0 0 -1 10201.7 -2800)"/><use xlink:href="#q"  transform="matrix(.707 0 0 -.707 10652.7 -2650)"/></g></g><g ><g ><use xlink:href="#n"  transform="matrix(1 0 0 -1 12134.2 -2800)"/><use xlink:href="#r"  transform="matrix(.707 0 0 -.707 12585.2 -2650)"/></g></g></g><g ><g ><g ><use xlink:href="#s"  transform="matrix(1 0 0 -1 4391 -1400)"/><use xlink:href="#i"  transform="matrix(.707 0 0 -.707 4868 -1250)"/></g></g><g ><g ><use xlink:href="#s"  transform="matrix(1 0 0 -1 6323.6 -1400)"/><use xlink:href="#o"  transform="matrix(.707 0 0 -.707 6800.6 -1250)"/></g></g><g ><g ><use xlink:href="#s"  transform="matrix(1 0 0 -1 8256.1 -1400)"/><use xlink:href="#p"  transform="matrix(.707 0 0 -.707 8733.1 -1250)"/></g></g><g ><g ><use xlink:href="#s"  transform="matrix(1 0 0 -1 10188.7 -1400)"/><use xlink:href="#q"  transform="matrix(.707 0 0 -.707 10665.7 -1250)"/></g></g><g ><g ><use xlink:href="#s"  transform="matrix(1 0 0 -1 12121.2 -1400)"/><use xlink:href="#r"  transform="matrix(.707 0 0 -.707 12598.2 -1250)"/></g></g></g><g ><g ><g ><use xlink:href="#t"  transform="matrix(1 0 0 -1 4415 0)"/><use xlink:href="#i"  transform="matrix(.707 0 0 -.707 4844 150)"/></g></g><g ><g ><use xlink:href="#t"  transform="matrix(1 0 0 -1 6347.6 0)"/><use xlink:href="#o"  transform="matrix(.707 0 0 -.707 6776.6 150)"/></g></g><g ><g ><use xlink:href="#t"  transform="matrix(1 0 0 -1 8280.1 0)"/><use xlink:href="#p"  transform="matrix(.707 0 0 -.707 8709.1 150)"/></g></g><g ><g ><use xlink:href="#t"  transform="matrix(1 0 0 -1 10212.7 0)"/><use xlink:href="#q"  transform="matrix(.707 0 0 -.707 10641.7 150)"/></g></g><g ><g ><use xlink:href="#t"  transform="matrix(1 0 0 -1 12145.2 0)"/><use xlink:href="#r"  transform="matrix(.707 0 0 -.707 12574.2 150)"/></g></g></g><g ><g ><g ><use xlink:href="#u"  transform="matrix(1 0 0 -1 4365 1400)"/><use xlink:href="#i"  transform="matrix(.707 0 0 -.707 4894 1550)"/></g></g><g ><g ><use xlink:href="#u"  transform="matrix(1 0 0 -1 6297.6 1400)"/><use xlink:href="#o"  transform="matrix(.707 0 0 -.707 6826.6 1550)"/></g></g><g ><g ><use xlink:href="#u"  transform="matrix(1 0 0 -1 8230.1 1400)"/><use xlink:href="#p"  transform="matrix(.707 0 0 -.707 8759.1 1550)"/></g></g><g ><g ><use xlink:href="#u"  transform="matrix(1 0 0 -1 10162.7 1400)"/><use xlink:href="#q"  transform="matrix(.707 0 0 -.707 10691.7 1550)"/></g></g><g ><g ><use xlink:href="#u"  transform="matrix(1 0 0 -1 12095.2 1400)"/><use xlink:href="#r"  transform="matrix(.707 0 0 -.707 12624.2 1550)"/></g></g></g><g ><g ><use xlink:href="#v"  transform="matrix(1 0 0 -1 4581.3 2800)"/></g><g ><use xlink:href="#v"  transform="matrix(1 0 0 -1 6513.8 2800)"/></g><g ><use xlink:href="#v"  transform="matrix(1 0 0 -1 8446.4 2800)"/></g><g ><use xlink:href="#v"  transform="matrix(1 0 0 -1 10378.9 2800)"/></g><g ><use xlink:href="#i"  transform="matrix(1 0 0 -1 12311.5 2800)"/></g></g></g><g  transform="matrix(1 0 0 -1 13027.8 0)"><use xlink:href="#j" transform="translate(0 2396)"/><use xlink:href="#k" transform="translate(0 -2406)"/><svg width="667" height="3202" y="-1351" viewBox="0 800.5 667 3202"><use xlink:href="#l" transform="scale(1 7.978)"/></svg></g></g><use xlink:href="#w"  transform="matrix(1 0 0 -1 13917 0)"/><g ><g  transform="matrix(1 0 0 -1 14417.2 0)"><use xlink:href="#a" transform="translate(0 2396)"/><use xlink:href="#b" transform="translate(0 -2406)"/><svg width="667" height="3202" y="-1351" viewBox="0 800.5 667 3202"><use xlink:href="#c" transform="scale(1 7.978)"/></svg></g><g ><g ><g ><use xlink:href="#d"  transform="matrix(1 0 0 -1 15097.7 -2800)"/></g></g><g ><g ><use xlink:href="#f"  transform="matrix(1 0 0 -1 15084.2 -1400)"/></g></g><g ><g ><use xlink:href="#g"  transform="matrix(1 0 0 -1 15097.7 0)"/></g></g><g ><g ><use xlink:href="#h"  transform="matrix(1 0 0 -1 15102.2 1400)"/></g></g><g ><g ><use xlink:href="#i"  transform="matrix(1 0 0 -1 15227.2 2800)"/></g></g></g><g  transform="matrix(1 0 0 -1 15870.2 0)"><use xlink:href="#j" transform="translate(0 2396)"/><use xlink:href="#k" transform="translate(0 -2406)"/><svg width="667" height="3202" y="-1351" viewBox="0 800.5 667 3202"><use xlink:href="#l" transform="scale(1 7.978)"/></svg></g></g><use xlink:href="#m"  transform="matrix(1 0 0 -1 16815 0)"/><g ><g  transform="matrix(1 0 0 -1 17870.8 0)"><use xlink:href="#a" transform="translate(0 2396)"/><use xlink:href="#b" transform="translate(0 -2406)"/><svg width="667" height="3202" y="-1351" viewBox="0 800.5 667 3202"><use xlink:href="#c" transform="scale(1 7.978)"/></svg></g><g ><g ><g ><g ><use xlink:href="#n"  transform="matrix(1 0 0 -1 18732.8 -2800)"/><use xlink:href="#i"  transform="matrix(.707 0 0 -.707 19183.8 -2650)"/></g><use xlink:href="#x"  transform="matrix(1 0 0 -1 19809.6 -2800)"/><use xlink:href="#d"  transform="matrix(1 0 0 -1 20531.8 -2800)"/><use xlink:href="#y"  transform="matrix(1 0 0 -1 21513 -2800)"/><g ><use xlink:href="#n"  transform="matrix(1 0 0 -1 22513.2 -2800)"/><use xlink:href="#o"  transform="matrix(.707 0 0 -.707 22964.2 -2650)"/></g><use xlink:href="#x"  transform="matrix(1 0 0 -1 23590 -2800)"/><use xlink:href="#f"  transform="matrix(1 0 0 -1 24312.2 -2800)"/><use xlink:href="#y"  transform="matrix(1 0 0 -1 25320.5 -2800)"/><g ><use xlink:href="#n"  transform="matrix(1 0 0 -1 26320.7 -2800)"/><use xlink:href="#p"  transform="matrix(.707 0 0 -.707 26771.7 -2650)"/></g><use xlink:href="#x"  transform="matrix(1 0 0 -1 27397.5 -2800)"/><use xlink:href="#g"  transform="matrix(1 0 0 -1 28119.7 -2800)"/><use xlink:href="#y"  transform="matrix(1 0 0 -1 29100.9 -2800)"/><g ><use xlink:href="#n"  transform="matrix(1 0 0 -1 30101.1 -2800)"/><use xlink:href="#q"  transform="matrix(.707 0 0 -.707 30552.1 -2650)"/></g><use xlink:href="#x"  transform="matrix(1 0 0 -1 31177.9 -2800)"/><use xlink:href="#h"  transform="matrix(1 0 0 -1 31900.1 -2800)"/><use xlink:href="#y"  transform="matrix(1 0 0 -1 32872.3 -2800)"/><g ><use xlink:href="#n"  transform="matrix(1 0 0 -1 33872.6 -2800)"/><use xlink:href="#r"  transform="matrix(.707 0 0 -.707 34323.6 -2650)"/></g></g></g><g ><g ><g ><use xlink:href="#s"  transform="matrix(1 0 0 -1 18667.8 -1400)"/><use xlink:href="#i"  transform="matrix(.707 0 0 -.707 19144.8 -1250)"/></g><use xlink:href="#x"  transform="matrix(1 0 0 -1 19770.6 -1400)"/><use xlink:href="#d"  transform="matrix(1 0 0 -1 20492.8 -1400)"/><use xlink:href="#y"  transform="matrix(1 0 0 -1 21474 -1400)"/><g ><use xlink:href="#s"  transform="matrix(1 0 0 -1 22474.2 -1400)"/><use xlink:href="#o"  transform="matrix(.707 0 0 -.707 22951.2 -1250)"/></g><use xlink:href="#x"  transform="matrix(1 0 0 -1 23577 -1400)"/><use xlink:href="#f"  transform="matrix(1 0 0 -1 24299.2 -1400)"/><use xlink:href="#y"  transform="matrix(1 0 0 -1 25307.5 -1400)"/><g ><use xlink:href="#s"  transform="matrix(1 0 0 -1 26307.7 -1400)"/><use xlink:href="#p"  transform="matrix(.707 0 0 -.707 26784.7 -1250)"/></g><use xlink:href="#x"  transform="matrix(1 0 0 -1 27410.5 -1400)"/><use xlink:href="#g"  transform="matrix(1 0 0 -1 28132.7 -1400)"/><use xlink:href="#y"  transform="matrix(1 0 0 -1 29113.9 -1400)"/><g ><use xlink:href="#s"  transform="matrix(1 0 0 -1 30114.1 -1400)"/><use xlink:href="#q"  transform="matrix(.707 0 0 -.707 30591.1 -1250)"/></g><use xlink:href="#x"  transform="matrix(1 0 0 -1 31216.9 -1400)"/><use xlink:href="#h"  transform="matrix(1 0 0 -1 31939.1 -1400)"/><use xlink:href="#y"  transform="matrix(1 0 0 -1 32911.3 -1400)"/><g ><use xlink:href="#s"  transform="matrix(1 0 0 -1 33911.6 -1400)"/><use xlink:href="#r"  transform="matrix(.707 0 0 -.707 34388.6 -1250)"/></g></g></g><g ><g ><g ><use xlink:href="#t"  transform="matrix(1 0 0 -1 18787.8 0)"/><use xlink:href="#i"  transform="matrix(.707 0 0 -.707 19216.8 150)"/></g><use xlink:href="#x"  transform="matrix(1 0 0 -1 19842.6 0)"/><use xlink:href="#d"  transform="matrix(1 0 0 -1 20564.8 0)"/><use xlink:href="#y"  transform="matrix(1 0 0 -1 21546 0)"/><g ><use xlink:href="#t"  transform="matrix(1 0 0 -1 22546.2 0)"/><use xlink:href="#o"  transform="matrix(.707 0 0 -.707 22975.2 150)"/></g><use xlink:href="#x"  transform="matrix(1 0 0 -1 23601 0)"/><use xlink:href="#f"  transform="matrix(1 0 0 -1 24323.2 0)"/><use xlink:href="#y"  transform="matrix(1 0 0 -1 25331.5 0)"/><g ><use xlink:href="#t"  transform="matrix(1 0 0 -1 26331.7 0)"/><use xlink:href="#p"  transform="matrix(.707 0 0 -.707 26760.7 150)"/></g><use xlink:href="#x"  transform="matrix(1 0 0 -1 27386.5 0)"/><use xlink:href="#g"  transform="matrix(1 0 0 -1 28108.7 0)"/><use xlink:href="#y"  transform="matrix(1 0 0 -1 29089.9 0)"/><g ><use xlink:href="#t"  transform="matrix(1 0 0 -1 30090.1 0)"/><use xlink:href="#q"  transform="matrix(.707 0 0 -.707 30519.1 150)"/></g><use xlink:href="#x"  transform="matrix(1 0 0 -1 31144.9 0)"/><use xlink:href="#h"  transform="matrix(1 0 0 -1 31867.1 0)"/><use xlink:href="#y"  transform="matrix(1 0 0 -1 32839.3 0)"/><g ><use xlink:href="#t"  transform="matrix(1 0 0 -1 33839.6 0)"/><use xlink:href="#r"  transform="matrix(.707 0 0 -.707 34268.6 150)"/></g></g></g><g ><g ><g ><use xlink:href="#u"  transform="matrix(1 0 0 -1 18537.8 1400)"/><use xlink:href="#i"  transform="matrix(.707 0 0 -.707 19066.8 1550)"/></g><use xlink:href="#x"  transform="matrix(1 0 0 -1 19692.6 1400)"/><use xlink:href="#d"  transform="matrix(1 0 0 -1 20414.8 1400)"/><use xlink:href="#y"  transform="matrix(1 0 0 -1 21396 1400)"/><g ><use xlink:href="#u"  transform="matrix(1 0 0 -1 22396.2 1400)"/><use xlink:href="#o"  transform="matrix(.707 0 0 -.707 22925.2 1550)"/></g><use xlink:href="#x"  transform="matrix(1 0 0 -1 23551 1400)"/><use xlink:href="#f"  transform="matrix(1 0 0 -1 24273.2 1400)"/><use xlink:href="#y"  transform="matrix(1 0 0 -1 25281.5 1400)"/><g ><use xlink:href="#u"  transform="matrix(1 0 0 -1 26281.7 1400)"/><use xlink:href="#p"  transform="matrix(.707 0 0 -.707 26810.7 1550)"/></g><use xlink:href="#x"  transform="matrix(1 0 0 -1 27436.5 1400)"/><use xlink:href="#g"  transform="matrix(1 0 0 -1 28158.7 1400)"/><use xlink:href="#y"  transform="matrix(1 0 0 -1 29139.9 1400)"/><g ><use xlink:href="#u"  transform="matrix(1 0 0 -1 30140.1 1400)"/><use xlink:href="#q"  transform="matrix(.707 0 0 -.707 30669.1 1550)"/></g><use xlink:href="#x"  transform="matrix(1 0 0 -1 31294.9 1400)"/><use xlink:href="#h"  transform="matrix(1 0 0 -1 32017.1 1400)"/><use xlink:href="#y"  transform="matrix(1 0 0 -1 32989.3 1400)"/><g ><use xlink:href="#u"  transform="matrix(1 0 0 -1 33989.6 1400)"/><use xlink:href="#r"  transform="matrix(.707 0 0 -.707 34518.6 1550)"/></g></g></g><g ><g ><use xlink:href="#i"  transform="matrix(1 0 0 -1 26480 2800)"/></g></g></g><g  transform="matrix(1 0 0 -1 34922.1 0)"><use xlink:href="#j" transform="translate(0 2396)"/><use xlink:href="#k" transform="translate(0 -2406)"/><svg width="667" height="3202" y="-1351" viewBox="0 800.5 667 3202"><use xlink:href="#l" transform="scale(1 7.978)"/></svg></g></g></g></svg>