<svg xmlns="http://www.w3.org/2000/svg" xmlns:xlink="http://www.w3.org/1999/xlink" width="23.708ex" height="11.765ex" aria-hidden="true" viewBox="0 -2850 10479 5200"><defs><path id="a" d="M319-645v1799h347v-84H403V-645h-84Z"/><path id="b" d="M319-644v1799h84V-560h263v-84H319Z"/><path id="c" d="M319 0v602h84V0h-84Z"/><path id="d" d="M21 287q1 3 2 8t5 22 10 31 15 33 20 30 26 22 33 9q29 0 51-12t31-22 11-20q2-6 3-6t8 7q48 52 111 52h3q48 0 72-41 8-19 8-37 0-30-13-48t-26-23-25-4q-20 0-32 11t-12 29q0 48 56 64-22 13-36 13-56 0-103-74-10-16-15-33t-34-133Q156 25 151 16q-13-27-43-27-13 0-21 6T76 7t-2 10q0 13 40 172t40 177q0 39-26 39-21 0-36-28t-24-61-11-36q-2-2-16-2H27q-6 6-6 9Z"/><path id="e" d="m213 578-13-5q-14-5-40-10t-58-7H83v46h19q47 2 87 15t56 24 28 22q2 3 12 3 9 0 17-6V361l1-300q7-7 12-9t24-4 62-2h26V0h-11q-21 3-159 3-136 0-157-3H88v46h64q16 0 25 1t16 3 8 2 6 5 6 4v517Z"/><path id="f" d="M109 429q-27 0-43 18t-16 44q0 71 53 123t132 52q91 0 152-56t62-145q0-43-20-82t-48-68-80-74q-36-31-100-92l-59-56 76-1q157 0 167 5 7 2 24 89v3h40v-3q-1-3-13-91T421 3V0H50v31q0 7 6 15t30 35q29 32 50 56 9 10 34 37t34 37 29 33 28 34 23 30 21 32 15 29 13 32 7 30 3 33q0 63-34 109t-97 46q-33 0-58-17t-35-33-10-19q0-1 5-1 18 0 37-14t19-46q0-25-16-42t-45-18Z"/><path id="g" d="M127 463q-27 0-42 17t-16 44q0 55 48 98t116 43q35 0 44-1 74-12 113-53t40-89q0-52-34-101t-94-71l-3-2q0-1 9-3t29-9 38-21q82-53 82-140 0-79-62-138T238-22q-80 0-138 43T42 130q0 28 18 45t45 18q28 0 46-18t18-45q0-11-3-20t-7-16-11-12-12-8-10-4-8-3l-4-1q51-45 124-45 55 0 83 53 17 33 17 101v20q0 95-64 127-15 6-61 7l-42 1-3 2q-2 3-2 16 0 18 8 18 28 0 58 5 34 5 62 42t28 112v8q0 57-35 79-22 14-47 14-32 0-59-11t-38-23-11-12h3q3-1 8-2t10-5 12-7 10-11 8-15 3-20q0-22-14-39t-45-18Z"/><path id="h" d="M462 0q-18 3-129 3-116 0-134-3h-9v46h58q7 0 17 2t14 5 7 8q1 2 1 54v50H28v46l151 231q153 232 155 233 2 2 21 2h18l6-6V211h92v-46h-92V66q0-7 6-12 8-7 57-8h29V0h-9ZM293 211v334L74 212l109-1h110Z"/><path id="i" d="M164 157q0-24-16-40t-39-16h-7q46-79 122-79 70 0 102 60 19 33 19 128 0 103-27 139-26 33-58 33h-6q-78 0-118-68-4-7-7-8t-15-2q-17 0-19 6-2 4-2 175v129q0 50 5 50 2 2 4 2 1 0 21-8t55-16 75-8q71 0 136 28 8 4 13 4 8 0 8-18v-13q-82-97-205-97-31 0-56 6l-10 2V374q19 14 30 22t36 16 51 8q81 0 137-65t56-154q0-92-64-157T229-22q-81 0-130 54T50 154q0 24 11 38t23 18 23 4q25 0 41-17t16-40Z"/><path id="j" d="M311 43q-15-13-44-28T206 0q-63 0-101 45T66 160q0 105 77 193t171 89q47 0 87-48l3 4q2 3 5 6t9 8 13 7 16 3q14 0 23-9t10-19q0-15-57-242T363-80q-18-54-77-89t-135-36q-141 0-141 68 0 26 18 46t46 20q15 0 28-9t14-31q0-10-2-19t-7-14-8-10-7-8l-2-2h1q10-3 60-3 38 0 60 12 23 11 43 33t28 47q6 19 16 62 13 48 13 56Zm73 285-4 11q-3 11-5 15t-6 14-10 14-13 11-18 9-22 3q-44 0-85-53-30-39-50-119t-20-116q0-79 62-79 56 0 110 70l8 10 53 210Z"/><path id="k" d="M73 647q0 10 4 23t12 13q1 0 72 5t73 6q12 0 12-9t-34-143q-8-34-17-70t-15-54l-4-19q0-3 6 3 49 40 101 40 62 0 100-46t39-116q0-111-79-201T173-11q-50 0-91 38T40 150v9q0 21 8 58t49 197q50 197 50 209t-38 14H83q-3 0-7 3t-3 7Zm263-322v6q0 74-61 74-17 0-35-8t-33-21-26-24-18-22l-6-8-21-86q-22-86-22-122 0-48 24-72 16-16 40-16 33 0 67 32 25 23 40 56t33 105q18 72 18 106Z"/><path id="l" d="M33 157q0 101 76 192t171 92q51 0 90-49 16 30 46 30 13 0 23-8t10-20q0-13-37-160T374 68q0-25 7-33t21-9q9 1 20 9 21 20 41 96 6 20 10 21 2 1 10 1h4q19 0 19-9 0-6-5-27t-20-54-32-50Q436 0 417-8q-8-2-24-2-34 0-57 15t-30 31l-6 15q-1 1-4-1l-4-4q-59-56-120-56-55 0-97 40T33 157Zm318 171q0 6-5 22t-23 35-46 20q-35 0-67-31t-50-81q-29-79-41-164v-11q0-8-1-12 0-45 18-62t43-18q38 0 75 33t44 51q2 4 27 107t26 111Z"/><path id="m" d="M0 1070v84h347V-645h-84v1715H0Z"/><path id="n" d="M263-560v1715h84V-644H0v84h263Z"/><path id="o" d="M263 0v602h84V0h-84Z"/></defs><g fill="currentColor" stroke="currentColor" stroke-width="0" ><g ><g  transform="scale(1 -1)"><use xlink:href="#a" transform="translate(0 1696)"/><use xlink:href="#b" transform="translate(0 -1706)"/><svg width="667" height="1802" y="-651" viewBox="0 450.5 667 1802"><use xlink:href="#c" transform="scale(1 4.49)"/></svg></g><g ><g ><g ><use xlink:href="#d"  transform="matrix(1 0 0 -1 706 -2100)"/><use xlink:href="#e"  transform="matrix(1 0 0 -1 1157 -2100)"/></g><g ><use xlink:href="#d"  transform="matrix(1 0 0 -1 2735 -2100)"/><use xlink:href="#f"  transform="matrix(1 0 0 -1 3186 -2100)"/></g><g ><use xlink:href="#d"  transform="matrix(1 0 0 -1 4764 -2100)"/><use xlink:href="#g"  transform="matrix(1 0 0 -1 5215 -2100)"/></g><g ><use xlink:href="#d"  transform="matrix(1 0 0 -1 6793 -2100)"/><use xlink:href="#h"  transform="matrix(1 0 0 -1 7244 -2100)"/></g><g ><use xlink:href="#d"  transform="matrix(1 0 0 -1 8822 -2100)"/><use xlink:href="#i"  transform="matrix(1 0 0 -1 9273 -2100)"/></g></g><g ><g ><use xlink:href="#j"  transform="matrix(1 0 0 -1 693 -700)"/><use xlink:href="#e"  transform="matrix(1 0 0 -1 1170 -700)"/></g><g ><use xlink:href="#j"  transform="matrix(1 0 0 -1 2722 -700)"/><use xlink:href="#f"  transform="matrix(1 0 0 -1 3199 -700)"/></g><g ><use xlink:href="#j"  transform="matrix(1 0 0 -1 4751 -700)"/><use xlink:href="#g"  transform="matrix(1 0 0 -1 5228 -700)"/></g><g ><use xlink:href="#j"  transform="matrix(1 0 0 -1 6780 -700)"/><use xlink:href="#h"  transform="matrix(1 0 0 -1 7257 -700)"/></g><g ><use xlink:href="#j"  transform="matrix(1 0 0 -1 8809 -700)"/><use xlink:href="#i"  transform="matrix(1 0 0 -1 9286 -700)"/></g></g><g ><g ><use xlink:href="#k"  transform="matrix(1 0 0 -1 717 700)"/><use xlink:href="#e"  transform="matrix(1 0 0 -1 1146 700)"/></g><g ><use xlink:href="#k"  transform="matrix(1 0 0 -1 2746 700)"/><use xlink:href="#f"  transform="matrix(1 0 0 -1 3175 700)"/></g><g ><use xlink:href="#k"  transform="matrix(1 0 0 -1 4775 700)"/><use xlink:href="#g"  transform="matrix(1 0 0 -1 5204 700)"/></g><g ><use xlink:href="#k"  transform="matrix(1 0 0 -1 6804 700)"/><use xlink:href="#h"  transform="matrix(1 0 0 -1 7233 700)"/></g><g ><use xlink:href="#k"  transform="matrix(1 0 0 -1 8833 700)"/><use xlink:href="#i"  transform="matrix(1 0 0 -1 9262 700)"/></g></g><g ><g ><use xlink:href="#l"  transform="matrix(1 0 0 -1 667 2100)"/><use xlink:href="#e"  transform="matrix(1 0 0 -1 1196 2100)"/></g><g ><use xlink:href="#l"  transform="matrix(1 0 0 -1 2696 2100)"/><use xlink:href="#f"  transform="matrix(1 0 0 -1 3225 2100)"/></g><g ><use xlink:href="#l"  transform="matrix(1 0 0 -1 4725 2100)"/><use xlink:href="#g"  transform="matrix(1 0 0 -1 5254 2100)"/></g><g ><use xlink:href="#l"  transform="matrix(1 0 0 -1 6754 2100)"/><use xlink:href="#h"  transform="matrix(1 0 0 -1 7283 2100)"/></g><g ><use xlink:href="#l"  transform="matrix(1 0 0 -1 8783 2100)"/><use xlink:href="#i"  transform="matrix(1 0 0 -1 9312 2100)"/></g></g></g><g  transform="matrix(1 0 0 -1 9812 0)"><use xlink:href="#m" transform="translate(0 1696)"/><use xlink:href="#n" transform="translate(0 -1706)"/><svg width="667" height="1802" y="-651" viewBox="0 450.5 667 1802"><use xlink:href="#o" transform="scale(1 4.49)"/></svg></g></g></g></svg>